<svg width="232" height="134" viewBox="0 0 232 134" fill="none" xmlns="http://www.w3.org/2000/svg">
<rect width="232" height="134" rx="4" fill="#F2F6F7"/>
<rect x="49" y="6.66675" width="134" height="120.667" rx="5" stroke="#D0D3D4" stroke-width="2"/>
<path d="M50 7.66675H93V36.3334H50V7.66675Z" fill="#C2D3D9"/>
<path d="M93 36.3334V37.3334H94V36.3334H93ZM93 7.66675H92V36.3334H93H94V7.66675H93ZM93 36.3334V35.3334H50V36.3334V37.3334H93V36.3334Z" fill="#D0D3D4"/>
<path d="M137 36.3334V37.3334H138V36.3334H137ZM137 7.66675H136V36.3334H137H138V7.66675H137ZM137 36.3334V35.3334H94V36.3334V37.3334H137V36.3334Z" fill="#D0D3D4"/>
<path d="M182 36.3334V35.3334H138V36.3334V37.3334H182V36.3334Z" fill="#D0D3D4"/>
<path d="M50 37.3335H93V66.0002H50V37.3335Z" fill="#C2D3D9"/>
<path d="M93 66.0002V67.0002H94V66.0002H93ZM93 37.3335H92V66.0002H93H94V37.3335H93ZM93 66.0002V65.0002H50V66.0002V67.0002H93V66.0002Z" fill="#D0D3D4"/>
<path d="M137 66.0002V67.0002H138V66.0002H137ZM137 37.3335H136V66.0002H137H138V37.3335H137ZM137 66.0002V65.0002H94V66.0002V67.0002H137V66.0002Z" fill="#D0D3D4"/>
<path d="M182 66.0002V65.0002H138V66.0002V67.0002H182V66.0002Z" fill="#D0D3D4"/>
<path d="M137 95.6667V96.6667H138V95.6667H137ZM137 67H136V95.6667H137H138V67H137ZM137 95.6667V94.6667H94V95.6667V96.6667H137V95.6667Z" fill="#D0D3D4"/>
<path d="M137 96.6667H136V126.333H137H138V96.6667H137Z" fill="#D0D3D4"/>
<path d="M50 67H93V95.6667H50V67Z" fill="#C2D3D9"/>
<path d="M93 95.6667V96.6667H94V95.6667H93ZM93 67H92V95.6667H93H94V67H93ZM93 95.6667V94.6667H50V95.6667V96.6667H93V95.6667Z" fill="#D0D3D4"/>
<path d="M182 95.6667V94.6667H138V95.6667V96.6667H182V95.6667Z" fill="#D0D3D4"/>
<path d="M50 96.6667H93V126.333H50V96.6667Z" fill="#C2D3D9"/>
<path d="M93 96.6667H92V126.333H93H94V96.6667H93Z" fill="#D0D3D4"/>
</svg>
