<svg width="32" height="32" viewBox="0 0 32 32" fill="none" xmlns="http://www.w3.org/2000/svg">
<path d="M17.0001 12.0003C17.0001 11.448 16.5524 11.0003 16.0001 11.0003C15.4478 11.0003 15.0001 11.448 15.0001 12.0003L15.0001 15.0004H12.0001C11.4478 15.0004 11.0001 15.4481 11.0001 16.0004C11.0001 16.5526 11.4478 17.0004 12.0001 17.0004H15.0001V20.0003C15.0001 20.5526 15.4478 21.0003 16.0001 21.0003C16.5524 21.0003 17.0001 20.5526 17.0001 20.0003L17.0001 17.0004H20.0001C20.5524 17.0004 21.0001 16.5526 21.0001 16.0004C21.0001 15.4481 20.5524 15.0004 20.0001 15.0004H17.0001V12.0003Z" fill="white"/>
<path fill-rule="evenodd" clip-rule="evenodd" d="M16.0001 1.66699C8.084 1.66699 1.66675 8.08424 1.66675 16.0003C1.66675 23.9164 8.084 30.3337 16.0001 30.3337C23.9162 30.3337 30.3334 23.9164 30.3334 16.0003C30.3334 8.08424 23.9162 1.66699 16.0001 1.66699ZM3.66675 16.0003C3.66675 9.18881 9.18857 3.66699 16.0001 3.66699C22.8116 3.66699 28.3334 9.18881 28.3334 16.0003C28.3334 22.8118 22.8116 28.3337 16.0001 28.3337C9.18857 28.3337 3.66675 22.8118 3.66675 16.0003Z" fill="white"/>
</svg>
