<svg width="32" height="32" viewBox="0 0 32 32" fill="none" xmlns="http://www.w3.org/2000/svg">
<path d="M14.707 11.9595C14.3165 11.569 13.6833 11.569 13.2928 11.9595C12.9023 12.35 12.9023 12.9832 13.2928 13.3737L15.9191 15.9999L13.2929 18.6261C12.9023 19.0167 12.9023 19.6498 13.2929 20.0404C13.6834 20.4309 14.3165 20.4309 14.7071 20.0404L17.3333 17.4141L19.9595 20.0403C20.35 20.4309 20.9832 20.4309 21.3737 20.0403C21.7642 19.6498 21.7642 19.0166 21.3737 18.6261L18.7475 15.9999L21.3737 13.3737C21.7642 12.9832 21.7642 12.35 21.3737 11.9595C20.9832 11.569 20.35 11.569 19.9595 11.9595L17.3333 14.5857L14.707 11.9595Z" fill="#004662"/>
<path fill-rule="evenodd" clip-rule="evenodd" d="M28.4254 6.17867C27.4051 5.18575 26.1139 4.7461 24.5154 4.53696C22.9581 4.33322 20.9667 4.33323 18.4455 4.33325H14.8077C13.3637 4.33324 12.2111 4.33323 11.2671 4.42113C10.2926 4.51189 9.46634 4.70123 8.68678 5.12168C7.90593 5.54283 7.2999 6.12679 6.70101 6.88708C6.12258 7.62138 5.51048 8.57442 4.7462 9.76442L3.78265 11.2647C3.14512 12.2572 2.62457 13.0677 2.26969 13.7739C1.89894 14.5118 1.66663 15.2146 1.66663 15.9999C1.66663 16.7852 1.89894 17.4881 2.26969 18.2259C2.62456 18.9321 3.14511 19.7426 3.78262 20.7351L4.74621 22.2354C5.51049 23.4254 6.12259 24.3785 6.70101 25.1128C7.2999 25.8731 7.90593 26.457 8.68678 26.8782C9.46634 27.2986 10.2926 27.488 11.2671 27.5787C12.211 27.6666 13.3636 27.6666 14.8076 27.6666H18.4454C20.9667 27.6666 22.9581 27.6666 24.5154 27.4629C26.1139 27.2537 27.4051 26.8141 28.4254 25.8212C29.4496 24.8245 29.9065 23.5572 30.1232 21.9889C30.3333 20.4681 30.3333 18.5257 30.3333 16.0768V15.9229C30.3333 13.4741 30.3333 11.5317 30.1232 10.0109C29.9065 8.44265 29.4496 7.1753 28.4254 6.17867ZM18.3719 6.33325C20.9831 6.33325 22.8435 6.33527 24.256 6.52006C25.6424 6.70146 26.4457 7.04285 27.0306 7.61203C27.6117 8.1775 27.9574 8.94827 28.142 10.2847C28.3311 11.6527 28.3333 13.4567 28.3333 15.9999C28.3333 18.5431 28.3311 20.3472 28.142 21.7152C27.9574 23.0516 27.6117 23.8223 27.0306 24.3878C26.4457 24.957 25.6424 25.2984 24.256 25.4798C22.8435 25.6646 20.9831 25.6666 18.3719 25.6666H14.856C13.3527 25.6666 12.2931 25.6656 11.4526 25.5873C10.6323 25.5109 10.0962 25.366 9.63619 25.1179C9.17743 24.8704 8.77015 24.5074 8.27211 23.8752C7.76035 23.2255 7.19944 22.3541 6.40218 21.1128L5.49444 19.6995C4.82091 18.6508 4.35866 17.9287 4.05677 17.3279C3.76538 16.748 3.66663 16.3618 3.66663 15.9999C3.66663 15.6381 3.76538 15.2518 4.05677 14.6719C4.35866 14.0711 4.82091 13.349 5.49444 12.3003L6.40218 10.887C7.19944 9.64569 7.76035 8.77435 8.27211 8.12467C8.77015 7.49242 9.17743 7.1294 9.63619 6.88197C10.0962 6.63385 10.6323 6.48891 11.4526 6.41252C12.2931 6.33425 13.3527 6.33325 14.856 6.33325L18.3719 6.33325Z" fill="#004662"/>
</svg>
