<svg width="32" height="32" viewBox="0 0 32 32" fill="none" xmlns="http://www.w3.org/2000/svg">
<path d="M14.7084 11.9595C14.3179 11.569 13.6847 11.569 13.2942 11.9595C12.9036 12.35 12.9036 12.9832 13.2942 13.3737L15.9204 15.9999L13.2942 18.6261C12.9037 19.0167 12.9037 19.6498 13.2942 20.0404C13.6847 20.4309 14.3179 20.4309 14.7084 20.0404L17.3346 17.4141L19.9608 20.0403C20.3513 20.4309 20.9845 20.4309 21.375 20.0403C21.7655 19.6498 21.7655 19.0166 21.375 18.6261L18.7488 15.9999L21.375 13.3737C21.7656 12.9832 21.7656 12.35 21.375 11.9595C20.9845 11.569 20.3514 11.569 19.9608 11.9595L17.3346 14.5857L14.7084 11.9595Z" fill="white"/>
<path fill-rule="evenodd" clip-rule="evenodd" d="M28.4268 6.17867C27.4064 5.18575 26.1153 4.7461 24.5168 4.53696C22.9595 4.33322 20.9681 4.33323 18.4468 4.33325H14.809C13.365 4.33324 12.2124 4.33323 11.2685 4.42113C10.2939 4.51189 9.46769 4.70123 8.68813 5.12168C7.90728 5.54283 7.30125 6.12679 6.70235 6.88708C6.12392 7.62138 5.51183 8.57442 4.74754 9.76442L3.78399 11.2647C3.14647 12.2572 2.62591 13.0677 2.27103 13.7739C1.90028 14.5118 1.66797 15.2146 1.66797 15.9999C1.66797 16.7852 1.90028 17.4881 2.27103 18.2259C2.62591 18.9321 3.14645 19.7426 3.78396 20.7351L4.74756 22.2354C5.51183 23.4254 6.12393 24.3785 6.70235 25.1128C7.30125 25.8731 7.90728 26.457 8.68813 26.8782C9.46769 27.2986 10.2939 27.488 11.2685 27.5787C12.2124 27.6666 13.365 27.6666 14.809 27.6666H18.4468C20.968 27.6666 22.9595 27.6666 24.5168 27.4629C26.1153 27.2537 27.4064 26.8141 28.4268 25.8212C29.4509 24.8245 29.9079 23.5572 30.1246 21.9889C30.3347 20.4681 30.3347 18.5257 30.3346 16.0768V15.9229C30.3347 13.4741 30.3347 11.5317 30.1246 10.0109C29.9079 8.44265 29.4509 7.1753 28.4268 6.17867ZM18.3732 6.33325C20.9844 6.33325 22.8448 6.33527 24.2573 6.52006C25.6438 6.70146 26.4471 7.04285 27.032 7.61203C27.6131 8.1775 27.9587 8.94827 28.1434 10.2847C28.3324 11.6527 28.3346 13.4567 28.3346 15.9999C28.3346 18.5431 28.3324 20.3472 28.1434 21.7152C27.9587 23.0516 27.6131 23.8223 27.032 24.3878C26.4471 24.957 25.6438 25.2984 24.2573 25.4798C22.8448 25.6646 20.9844 25.6666 18.3732 25.6666H14.8574C13.3541 25.6666 12.2944 25.6656 11.4539 25.5873C10.6336 25.5109 10.0976 25.366 9.63753 25.1179C9.17878 24.8704 8.77149 24.5074 8.27345 23.8752C7.76169 23.2255 7.20078 22.3541 6.40352 21.1128L5.49579 19.6995C4.82225 18.6508 4.36001 17.9287 4.05811 17.3279C3.76672 16.748 3.66797 16.3618 3.66797 15.9999C3.66797 15.6381 3.76672 15.2518 4.05811 14.6719C4.36001 14.0711 4.82225 13.349 5.49578 12.3003L6.40352 10.887C7.20078 9.64569 7.76169 8.77435 8.27345 8.12467C8.77149 7.49242 9.17878 7.1294 9.63753 6.88197C10.0976 6.63385 10.6336 6.48891 11.4539 6.41252C12.2944 6.33425 13.3541 6.33325 14.8574 6.33325L18.3732 6.33325Z" fill="white"/>
</svg>
