<svg width="32" height="39" viewBox="0 0 32 39" fill="none" xmlns="http://www.w3.org/2000/svg">
<path d="M20.668 29L16.0013 33L11.3346 29" stroke="#004662" stroke-width="2" stroke-linecap="round" stroke-linejoin="round"/>
<path d="M22.6654 12.0001C22.6654 12.7365 23.2623 13.3334 23.9987 13.3334C24.7351 13.3334 25.332 12.7365 25.332 12.0001C25.332 11.2637 24.7351 10.6667 23.9987 10.6667C23.2623 10.6667 22.6654 11.2637 22.6654 12.0001Z" fill="#004662"/>
<path d="M22.6654 16.0001C22.6654 16.7365 23.2623 17.3334 23.9987 17.3334C24.7351 17.3334 25.332 16.7365 25.332 16.0001C25.332 15.2637 24.7351 14.6667 23.9987 14.6667C23.2623 14.6667 22.6654 15.2637 22.6654 16.0001Z" fill="#004662"/>
<path d="M18.6654 16.0001C18.6654 16.7365 19.2623 17.3334 19.9987 17.3334C20.7351 17.3334 21.332 16.7365 21.332 16.0001C21.332 15.2637 20.7351 14.6667 19.9987 14.6667C19.2623 14.6667 18.6654 15.2637 18.6654 16.0001Z" fill="#004662"/>
<path d="M18.6654 12.0001C18.6654 12.7365 19.2623 13.3334 19.9987 13.3334C20.7351 13.3334 21.332 12.7365 21.332 12.0001C21.332 11.2637 20.7351 10.6667 19.9987 10.6667C19.2623 10.6667 18.6654 11.2637 18.6654 12.0001Z" fill="#004662"/>
<path d="M14.6654 12.0001C14.6654 12.7365 15.2623 13.3334 15.9987 13.3334C16.7351 13.3334 17.332 12.7365 17.332 12.0001C17.332 11.2637 16.7351 10.6667 15.9987 10.6667C15.2623 10.6667 14.6654 11.2637 14.6654 12.0001Z" fill="#004662"/>
<path d="M14.6654 16.0001C14.6654 16.7365 15.2623 17.3334 15.9987 17.3334C16.7351 17.3334 17.332 16.7365 17.332 16.0001C17.332 15.2637 16.7351 14.6667 15.9987 14.6667C15.2623 14.6667 14.6654 15.2637 14.6654 16.0001Z" fill="#004662"/>
<path d="M10.6654 12.0001C10.6654 12.7365 11.2623 13.3334 11.9987 13.3334C12.7351 13.3334 13.332 12.7365 13.332 12.0001C13.332 11.2637 12.7351 10.6667 11.9987 10.6667C11.2623 10.6667 10.6654 11.2637 10.6654 12.0001Z" fill="#004662"/>
<path d="M10.6654 16.0001C10.6654 16.7365 11.2623 17.3334 11.9987 17.3334C12.7351 17.3334 13.332 16.7365 13.332 16.0001C13.332 15.2637 12.7351 14.6667 11.9987 14.6667C11.2623 14.6667 10.6654 15.2637 10.6654 16.0001Z" fill="#004662"/>
<path d="M6.66536 12.0001C6.66536 12.7365 7.26232 13.3334 7.9987 13.3334C8.73508 13.3334 9.33203 12.7365 9.33203 12.0001C9.33203 11.2637 8.73508 10.6667 7.9987 10.6667C7.26232 10.6667 6.66536 11.2637 6.66536 12.0001Z" fill="#004662"/>
<path d="M6.66536 16.0001C6.66536 16.7365 7.26232 17.3334 7.9987 17.3334C8.73508 17.3334 9.33203 16.7365 9.33203 16.0001C9.33203 15.2637 8.73508 14.6667 7.9987 14.6667C7.26232 14.6667 6.66536 15.2637 6.66536 16.0001Z" fill="#004662"/>
<path fill-rule="evenodd" clip-rule="evenodd" d="M21.4052 5.66675H10.5922C8.76875 5.66672 7.29898 5.6667 6.14303 5.82211C4.94288 5.98347 3.93238 6.32866 3.12983 7.13122C2.32727 7.93377 1.98208 8.94427 1.82073 10.1444C1.66531 11.3004 1.66534 12.7701 1.66536 14.5936V17.4066C1.66534 19.23 1.66531 20.6998 1.82073 21.8557C1.98208 23.0559 2.32727 24.0664 3.12983 24.8689C3.93238 25.6715 4.94288 26.0167 6.14303 26.1781C7.29899 26.3335 8.76875 26.3334 10.5922 26.3334H21.4052C23.2286 26.3334 24.6984 26.3335 25.8544 26.1781C27.0545 26.0167 28.065 25.6715 28.8676 24.8689C29.6701 24.0664 30.0153 23.0559 30.1767 21.8557C30.3321 20.6998 30.3321 19.23 30.332 17.4066V14.5936C30.3321 12.7701 30.3321 11.3004 30.1767 10.1444C30.0153 8.94427 29.6701 7.93377 28.8676 7.13122C28.065 6.32866 27.0545 5.98347 25.8544 5.82211C24.6984 5.6667 23.2286 5.66672 21.4052 5.66675ZM25.5879 7.80428C26.5662 7.93582 27.0843 8.17641 27.4534 8.54543C27.8224 8.91445 28.063 9.43254 28.1945 10.4109C28.3299 11.418 28.332 12.7529 28.332 14.6667V17.3334C28.332 19.2473 28.3299 20.5821 28.1945 21.5893C28.063 22.5676 27.8224 23.0857 27.4534 23.4547C27.0843 23.8238 26.5662 24.0643 25.5879 24.1959C24.5807 24.3313 23.2459 24.3334 21.332 24.3334H10.6654C8.75148 24.3334 7.41666 24.3313 6.40952 24.1959C5.43116 24.0643 4.91306 23.8238 4.54404 23.4547C4.17502 23.0857 3.93443 22.5676 3.80289 21.5893C3.66749 20.5821 3.66536 19.2473 3.66536 17.3334V14.6667C3.66536 12.7529 3.66749 11.418 3.80289 10.4109C3.93443 9.43254 4.17502 8.91445 4.54404 8.54543C4.91306 8.17641 5.43116 7.93582 6.40952 7.80428C7.41666 7.66887 8.75148 7.66675 10.6654 7.66675H21.332C23.2459 7.66675 24.5807 7.66887 25.5879 7.80428ZM23.6654 21.3334C23.6654 20.7811 23.2176 20.3334 22.6654 20.3334H9.33203C8.77975 20.3334 8.33203 20.7811 8.33203 21.3334C8.33203 21.8857 8.77975 22.3334 9.33203 22.3334H22.6654C23.2176 22.3334 23.6654 21.8857 23.6654 21.3334Z" fill="#004662"/>
</svg>
