<svg width="32" height="32" viewBox="0 0 32 32" fill="none" xmlns="http://www.w3.org/2000/svg">
<path d="M7.2929 16.7071C6.90237 16.3166 6.90237 15.6834 7.2929 15.2929L9.95956 12.6262C10.3501 12.2357 10.9833 12.2357 11.3738 12.6263C11.7643 13.0168 11.7643 13.6499 11.3738 14.0405L10.4142 15L20 15C20.5523 15 21 15.4477 21 16C21 16.5523 20.5523 17 20 17L10.4142 17L11.3738 17.9596C11.7643 18.3501 11.7643 18.9833 11.3738 19.3738C10.9833 19.7643 10.3501 19.7643 9.95956 19.3738L7.2929 16.7071Z" fill="#FF9797"/>
<path fill-rule="evenodd" clip-rule="evenodd" d="M18.5938 1.66669H20.0735C21.8969 1.66666 23.3667 1.66664 24.5226 1.82205C25.7228 1.98341 26.7333 2.3286 27.5358 3.13116C28.3384 3.93371 28.6836 4.94421 28.8449 6.14435C29.0003 7.30031 29.0003 8.77007 29.0003 10.5935V21.4065C29.0003 23.23 29.0003 24.6997 28.8449 25.8557C28.6836 27.0558 28.3384 28.0663 27.5358 28.8689C26.7333 29.6714 25.7228 30.0166 24.5226 30.178C23.3667 30.3334 21.8969 30.3334 20.0735 30.3334H18.5938C16.7703 30.3334 15.3006 30.3334 14.1446 30.178C12.9445 30.0166 11.934 29.6714 11.1314 28.8689C10.5995 28.337 10.2676 27.7125 10.0574 26.9998C8.78891 26.9981 7.73208 26.9842 6.87585 26.8691C5.85725 26.7321 4.97413 26.4357 4.26921 25.7308C3.56428 25.0259 3.26791 24.1428 3.13096 23.1242C2.99994 22.1497 2.99997 20.9154 3 19.405V12.5951C2.99997 11.0847 2.99994 9.85034 3.13096 8.87587C3.26791 7.85727 3.56428 6.97415 4.26921 6.26923C4.97413 5.5643 5.85725 5.26793 6.87585 5.13098C7.73208 5.01586 8.78891 5.00191 10.0574 5.00024C10.2676 4.28751 10.5995 3.66307 11.1314 3.13116C11.934 2.3286 12.9445 1.98341 14.1446 1.82205C15.3006 1.66664 16.7703 1.66666 18.5938 1.66669ZM9.66929 22.6723C9.67407 23.5316 9.68826 24.3057 9.73713 24.9988C8.62448 24.9945 7.79733 24.975 7.14234 24.8869C6.34552 24.7798 5.95481 24.588 5.68342 24.3166C5.41203 24.0452 5.22026 23.6545 5.11312 22.8577C5.00213 22.0321 5 20.933 5 19.3334V12.6667C5 11.0671 5.00213 9.96796 5.11312 9.14236C5.22026 8.34554 5.41203 7.95483 5.68342 7.68344C5.95481 7.41205 6.34552 7.22027 7.14234 7.11314C7.79733 7.02508 8.62448 7.00555 9.73713 7.00124C9.68826 7.69433 9.67407 8.46841 9.66929 9.32779C9.66622 9.88007 10.1114 10.3303 10.6637 10.3333C11.216 10.3364 11.6662 9.8912 11.6693 9.33892C11.6774 7.88093 11.7152 6.84748 11.8593 6.06315C11.9981 5.3074 12.221 4.86997 12.5456 4.54537C12.9147 4.17635 13.4328 3.93576 14.4111 3.80422C15.4183 3.66881 16.7531 3.66669 18.667 3.66669H20.0003C21.9142 3.66669 23.249 3.66881 24.2561 3.80422C25.2345 3.93576 25.7526 4.17635 26.1216 4.54537C26.4906 4.91439 26.7312 5.43248 26.8628 6.41085C26.9982 7.41798 27.0003 8.7528 27.0003 10.6667V21.3334C27.0003 23.2472 26.9982 24.5821 26.8628 25.5892C26.7312 26.5676 26.4906 27.0857 26.1216 27.4547C25.7526 27.8237 25.2345 28.0643 24.2561 28.1958C23.249 28.3312 21.9142 28.3334 20.0003 28.3334H18.667C16.7531 28.3334 15.4183 28.3312 14.4111 28.1958C13.4328 28.0643 12.9147 27.8237 12.5456 27.4547C12.221 27.1301 11.9981 26.6926 11.8593 25.9369C11.7152 25.1526 11.6774 24.1191 11.6693 22.6611C11.6662 22.1088 11.216 21.6636 10.6637 21.6667C10.1114 21.6698 9.66622 22.12 9.66929 22.6723Z" fill="#FF9797"/>
</svg>
