<svg width="32" height="32" viewBox="0 0 32 32" fill="none" xmlns="http://www.w3.org/2000/svg">
<path fill-rule="evenodd" clip-rule="evenodd" d="M16 4.33301C16.5523 4.33301 17 4.78072 17 5.33301L17 24.2521L23.2929 17.9592C23.6834 17.5687 24.3166 17.5687 24.7071 17.9592C25.0976 18.3498 25.0976 18.9829 24.7071 19.3734L16.7071 27.3734C16.5196 27.561 16.2652 27.6663 16 27.6663C15.7348 27.6663 15.4804 27.561 15.2929 27.3734L7.29289 19.3734C6.90237 18.9829 6.90237 18.3498 7.29289 17.9592C7.68342 17.5687 8.31658 17.5687 8.70711 17.9592L15 24.2521L15 5.33301C15 4.78072 15.4477 4.33301 16 4.33301Z" fill="#C9C9C9"/>
</svg>
