<svg width="22" height="22" viewBox="0 0 22 22" fill="none" xmlns="http://www.w3.org/2000/svg">
<path fill-rule="evenodd" clip-rule="evenodd" d="M7.69934 0.250007C7.71302 0.250011 7.72689 0.250015 7.74097 0.250015H14.2588C14.2728 0.250015 14.2867 0.250011 14.3004 0.250007C14.5202 0.249948 14.6888 0.249902 14.8362 0.265715C16.1903 0.411039 17.2268 1.52305 17.2897 2.87008C18.5324 3.24111 19.4024 4.4249 19.3416 5.75728C19.7401 5.93704 20.0929 6.18502 20.3948 6.5298C21.0112 7.23385 21.1994 8.09539 21.2067 9.10064C21.2136 10.0723 21.0497 11.3015 20.8454 12.8337L20.4309 15.9422C20.2712 17.1401 20.142 18.1096 19.941 18.8688C19.7319 19.659 19.423 20.3141 18.8436 20.8215C18.2641 21.3288 17.5739 21.5483 16.763 21.6512C15.9839 21.75 15.0058 21.75 13.7974 21.75H8.20247C6.99402 21.75 6.01592 21.75 5.23686 21.6512C4.42593 21.5483 3.73571 21.3288 3.15625 20.8215C2.57679 20.3141 2.26798 19.659 2.05881 18.8688C1.85786 18.1096 1.72861 17.1401 1.56891 15.9422L1.15444 12.8337C0.95013 11.3015 0.786209 10.0723 0.793183 9.10064C0.800399 8.09539 0.988621 7.23385 1.60503 6.5298C1.90689 6.18502 2.25976 5.93703 2.65819 5.75728C2.59746 4.42494 3.46737 3.24117 4.71004 2.87011C4.77292 1.52306 5.80941 0.41104 7.16358 0.265715C7.31093 0.249902 7.47949 0.249948 7.69934 0.250007ZM6.23209 2.75001H15.7676C15.6611 2.22633 15.2263 1.8162 14.6761 1.75715C14.6198 1.75111 14.5396 1.75001 14.2588 1.75001H7.74097C7.46012 1.75001 7.37992 1.75111 7.32363 1.75715C6.77343 1.8162 6.33861 2.22633 6.23209 2.75001ZM4.18083 5.36744C5.12317 5.24998 6.3196 5.24999 7.7941 5.25001H14.2057C15.6802 5.24999 16.8767 5.24998 17.819 5.36744C17.6969 4.74074 17.1452 4.25001 16.4618 4.25001H5.53801C4.85464 4.25001 4.30291 4.74074 4.18083 5.36744ZM4.25493 6.87068C3.43054 6.98663 3.01357 7.19811 2.7336 7.51788C2.45363 7.83766 2.29912 8.27892 2.29314 9.1114C2.28702 9.96519 2.43518 11.0897 2.64907 12.6939L2.70579 13.1192L3.1272 12.814C4.21468 12.0264 5.82145 12.0652 6.85563 12.9212L10.6938 16.0981C11.0566 16.3983 11.6816 16.4544 12.1327 16.192L12.3996 16.0368C13.6758 15.2944 15.3862 15.3727 16.5638 16.25L18.6413 17.7976C18.7437 17.2419 18.8355 16.5586 18.9508 15.6939L19.3508 12.6939C19.5647 11.0897 19.7128 9.96519 19.7067 9.1114C19.7007 8.27892 19.5462 7.83766 19.2662 7.51788C18.9863 7.19811 18.5693 6.98663 17.7449 6.87068C16.8994 6.75177 15.7652 6.75001 14.1468 6.75001H7.85302C6.23464 6.75001 5.10042 6.75177 4.25493 6.87068ZM18.1677 19.3153L15.6677 17.4529C14.985 16.9444 13.9252 16.8847 13.1538 17.3334L12.887 17.4886C11.9152 18.0539 10.6044 17.9712 9.73736 17.2536L5.89919 14.0767C5.4012 13.6645 4.55027 13.6355 4.00705 14.0289L2.93098 14.8082L3.04907 15.6939C3.21706 16.9538 3.33511 17.8285 3.50887 18.4849C3.67721 19.1209 3.87533 19.4574 4.14434 19.6929C4.41335 19.9284 4.77307 20.0803 5.42568 20.1631C6.09932 20.2486 6.98194 20.25 8.25302 20.25H13.7468C15.0179 20.25 15.9005 20.2486 16.5742 20.1631C17.2268 20.0803 17.5865 19.9284 17.8555 19.6929C17.9717 19.5912 18.0746 19.4706 18.1677 19.3153ZM15.4999 9.75001C15.0857 9.75001 14.7499 10.0858 14.7499 10.5C14.7499 10.9142 15.0857 11.25 15.4999 11.25C15.9141 11.25 16.2499 10.9142 16.2499 10.5C16.2499 10.0858 15.9141 9.75001 15.4999 9.75001ZM13.2499 10.5C13.2499 9.25737 14.2573 8.25001 15.4999 8.25001C16.7426 8.25001 17.7499 9.25737 17.7499 10.5C17.7499 11.7427 16.7426 12.75 15.4999 12.75C14.2573 12.75 13.2499 11.7427 13.2499 10.5Z" fill="#004662"/>
</svg>
