<svg width="32" height="32" viewBox="0 0 32 32" fill="none" xmlns="http://www.w3.org/2000/svg">
<path d="M16.0003 1.66666H15.9238C12.846 1.66664 10.4339 1.66663 8.55193 1.91965C6.62562 2.17864 5.10559 2.71909 3.91251 3.91217C2.71943 5.10525 2.17897 6.62528 1.91999 8.5516C1.66696 10.4336 1.66698 12.8456 1.66699 15.9235V16.0765C1.66698 19.1544 1.66696 21.5664 1.91999 23.4484C2.17897 25.3747 2.71943 26.8947 3.91251 28.0878C5.10559 29.2809 6.62562 29.8213 8.55193 30.0803C10.4339 30.3334 12.846 30.3333 15.9238 30.3333H16.0768C19.1547 30.3333 21.5667 30.3334 23.4487 30.0803C25.375 29.8213 26.8951 29.2809 28.0881 28.0878C29.2812 26.8947 29.8217 25.3747 30.0807 23.4484C30.3337 21.5664 30.3337 19.1543 30.3337 16.0765V16C30.3337 15.4477 29.8859 15 29.3337 15C28.7814 15 28.3337 15.4477 28.3337 16C28.3337 19.171 28.3315 21.4486 28.0985 23.1819C27.8693 24.8864 27.4335 25.9141 26.6739 26.6736C25.9144 27.4331 24.8868 27.869 23.1822 28.0982C21.4489 28.3312 19.1713 28.3333 16.0003 28.3333C12.8294 28.3333 10.5517 28.3312 8.81843 28.0982C7.11389 27.869 6.08626 27.4331 5.32672 26.6736C4.56718 25.9141 4.13132 24.8864 3.90215 23.1819C3.66912 21.4486 3.66699 19.171 3.66699 16C3.66699 12.829 3.66912 10.5514 3.90215 8.81809C4.13132 7.11355 4.56718 6.08593 5.32672 5.32639C6.08626 4.56684 7.11389 4.13099 8.81843 3.90182C10.5517 3.66878 12.8294 3.66666 16.0003 3.66666C16.5526 3.66666 17.0003 3.21894 17.0003 2.66666C17.0003 2.11437 16.5526 1.66666 16.0003 1.66666Z" fill="white"/>
<path d="M16.6266 13.9596C16.236 14.3501 16.236 14.9832 16.6266 15.3738C17.0171 15.7643 17.6502 15.7643 18.0408 15.3738L28.3337 5.08087V9.79166C28.3337 10.3439 28.7814 10.7917 29.3337 10.7917C29.8859 10.7917 30.3337 10.3439 30.3337 9.79166V2.66666C30.3337 2.11437 29.8859 1.66666 29.3337 1.66666H22.2087C21.6564 1.66666 21.2087 2.11437 21.2087 2.66666C21.2087 3.21894 21.6564 3.66666 22.2087 3.66666H26.9194L16.6266 13.9596Z" fill="white"/>
</svg>
