<svg width="32" height="32" viewBox="0 0 32 32" fill="none" xmlns="http://www.w3.org/2000/svg">
<path fill-rule="evenodd" clip-rule="evenodd" d="M22.6663 4.3335C22.9811 4.3335 23.2775 4.48169 23.4663 4.7335L27.4663 10.0668C27.7977 10.5087 27.7082 11.1355 27.2663 11.4668C26.8245 11.7982 26.1977 11.7087 25.8663 11.2668L23.6663 8.3335V23.6668L25.8663 20.7335C26.1977 20.2917 26.8245 20.2021 27.2663 20.5335C27.7082 20.8649 27.7977 21.4917 27.4663 21.9335L23.4663 27.2668C23.2775 27.5186 22.9811 27.6668 22.6663 27.6668C22.3516 27.6668 22.0552 27.5186 21.8663 27.2668L17.8663 21.9335C17.535 21.4917 17.6245 20.8649 18.0663 20.5335C18.5082 20.2021 19.135 20.2917 19.4663 20.7335L21.6663 23.6668V8.33349L19.4663 11.2668C19.135 11.7087 18.5082 11.7982 18.0663 11.4668C17.6245 11.1355 17.535 10.5087 17.8663 10.0668L21.8663 4.7335C22.0552 4.48169 22.3516 4.3335 22.6663 4.3335ZM4.33301 9.3335C4.33301 8.78121 4.78072 8.3335 5.33301 8.3335H14.6663C15.2186 8.3335 15.6663 8.78121 15.6663 9.3335C15.6663 9.88578 15.2186 10.3335 14.6663 10.3335H5.33301C4.78072 10.3335 4.33301 9.88578 4.33301 9.3335ZM4.33301 16.0002C4.33301 15.4479 4.78072 15.0002 5.33301 15.0002H14.6663C15.2186 15.0002 15.6663 15.4479 15.6663 16.0002C15.6663 16.5524 15.2186 17.0002 14.6663 17.0002H5.33301C4.78072 17.0002 4.33301 16.5524 4.33301 16.0002ZM4.33301 22.6668C4.33301 22.1145 4.78072 21.6668 5.33301 21.6668H14.6663C15.2186 21.6668 15.6663 22.1145 15.6663 22.6668C15.6663 23.2191 15.2186 23.6668 14.6663 23.6668H5.33301C4.78072 23.6668 4.33301 23.2191 4.33301 22.6668Z" fill="#004662"/>
</svg>
