<svg width="32" height="32" viewBox="0 0 32 32" fill="none" xmlns="http://www.w3.org/2000/svg">
<path d="M12.0003 22.9998C11.448 22.9998 11.0003 23.4476 11.0003 23.9998C11.0003 24.5521 11.448 24.9998 12.0003 24.9998H20.0003C20.5526 24.9998 21.0003 24.5521 21.0003 23.9998C21.0003 23.4476 20.5526 22.9998 20.0003 22.9998H12.0003Z" fill="white"/>
<path fill-rule="evenodd" clip-rule="evenodd" d="M16.0003 1.6665C15.0562 1.6665 14.1984 1.93693 13.2677 2.38949C12.3681 2.82696 11.3289 3.47196 10.0308 4.2776L7.27537 5.9877C6.04711 6.74998 5.06358 7.36037 4.30553 7.94092C3.52052 8.54209 2.91759 9.15436 2.48207 9.95001C2.04746 10.744 1.85175 11.5888 1.75791 12.5874C1.66697 13.5552 1.66698 14.7387 1.66699 16.2228V18.373C1.66697 20.9115 1.66696 22.9153 1.8706 24.482C2.07949 26.0891 2.51841 27.3866 3.51014 28.4124C4.50644 29.443 5.77427 29.9034 7.3438 30.1217C8.86498 30.3332 10.8077 30.3332 13.2561 30.3332H18.7445C21.1928 30.3332 23.1357 30.3332 24.6569 30.1217C26.2264 29.9034 27.4942 29.443 28.4905 28.4124C29.4822 27.3866 29.9212 26.0891 30.1301 24.482C30.3337 22.9153 30.3337 20.9115 30.3337 18.373V16.2228C30.3337 14.7387 30.3337 13.5552 30.2427 12.5874C30.1489 11.5888 29.9532 10.744 29.5186 9.95001C29.0831 9.15436 28.4801 8.54209 27.6951 7.94091C26.9371 7.36038 25.9536 6.75 24.7253 5.98772L21.9698 4.27759C20.6718 3.47195 19.6325 2.82696 18.7329 2.38949C17.8023 1.93693 16.9445 1.6665 16.0003 1.6665ZM11.0397 6.00533C12.394 5.16478 13.3463 4.57522 14.1424 4.1881C14.918 3.81094 15.4672 3.6665 16.0003 3.6665C16.5334 3.6665 17.0827 3.81094 17.8583 4.1881C18.6543 4.57521 19.6066 5.16478 20.961 6.00533L23.6276 7.66033C24.9087 8.45543 25.8082 9.01497 26.4791 9.52877C27.1319 10.0287 27.5075 10.4412 27.7642 10.9103C28.0219 11.381 28.1723 11.9314 28.2515 12.7746C28.3326 13.638 28.3337 14.7276 28.3337 16.2717V18.2998C28.3337 20.9277 28.3317 22.8014 28.1467 24.2242C27.9651 25.6216 27.623 26.4323 27.0526 27.0223C26.4868 27.6076 25.7165 27.9551 24.3814 28.1407C23.0139 28.3309 21.2104 28.3332 18.667 28.3332H13.3337C10.7903 28.3332 8.98677 28.3309 7.61929 28.1407C6.28414 27.9551 5.51384 27.6076 4.94804 27.0223C4.37767 26.4323 4.03555 25.6216 3.85391 24.2242C3.66898 22.8014 3.66699 20.9277 3.66699 18.2998V16.2717C3.66699 14.7276 3.66801 13.638 3.74914 12.7746C3.82837 11.9314 3.97879 11.381 4.23645 10.9103C4.4932 10.4412 4.86876 10.0287 5.52155 9.52877C6.19246 9.01497 7.09192 8.45543 8.37303 7.66034L11.0397 6.00533Z" fill="white"/>
</svg>
