<svg width="32" height="32" viewBox="0 0 32 32" fill="none" xmlns="http://www.w3.org/2000/svg">
<path d="M20.9694 5.17878C22.8819 3.25893 25.6793 3.21861 27.2279 4.77324C28.7794 6.33081 28.7377 9.14579 26.8239 11.067L23.5922 14.3113C23.2024 14.7026 23.2036 15.3357 23.5949 15.7255C23.9862 16.1153 24.6193 16.114 25.0091 15.7227L28.2409 12.4784C30.7893 9.92013 31.1092 5.8357 28.6449 3.36177C26.1776 0.884897 22.1022 1.20771 19.5525 3.76731L13.0889 10.2559C10.5405 12.8142 10.2206 16.8987 12.685 19.3726C13.0747 19.7639 13.7079 19.7651 14.0992 19.3754C14.4905 18.9856 14.4917 18.3524 14.1019 17.9611C12.5504 16.4036 12.5922 13.5886 14.5059 11.6674L20.9694 5.17878Z" fill="white"/>
<path d="M19.3115 12.6278C18.9217 12.2365 18.2886 12.2353 17.8973 12.6251C17.506 13.0148 17.5048 13.648 17.8946 14.0393C19.4461 15.5969 19.4043 18.4118 17.4906 20.333L11.0271 26.8217C9.11465 28.7415 6.31721 28.7818 4.76859 27.2272C3.21704 25.6696 3.25883 22.8546 5.17257 20.9334L8.40436 17.6891C8.79412 17.2978 8.7929 16.6646 8.40162 16.2749C8.01034 15.8851 7.37717 15.8863 6.9874 16.2776L3.75562 19.5219C1.20721 22.0802 0.887268 26.1647 3.35164 28.6387C5.81893 31.1155 9.89433 30.7927 12.444 28.2331L18.9075 21.7444C21.4559 19.1862 21.7759 15.1018 19.3115 12.6278Z" fill="white"/>
</svg>
