<svg width="32" height="32" viewBox="0 0 32 32" fill="none" xmlns="http://www.w3.org/2000/svg">
<path fill-rule="evenodd" clip-rule="evenodd" d="M15.9272 1.66669H16.0735C17.8969 1.66666 19.3667 1.66664 20.5227 1.82205C21.7228 1.98341 22.7333 2.3286 23.5359 3.13115C24.5225 4.11779 24.8276 5.43358 24.9353 7.06592C25.262 7.08773 25.5687 7.11676 25.856 7.15539C27.0561 7.31674 28.0666 7.66193 28.8692 8.46449C29.6717 9.26704 30.0169 10.2775 30.1783 11.4777C30.3337 12.6336 30.3337 14.1034 30.3337 15.9269V16.0732C30.3337 17.8966 30.3337 19.3664 30.1783 20.5224C30.0169 21.7225 29.6717 22.733 28.8692 23.5356C27.8826 24.5222 26.5668 24.8273 24.9344 24.935C24.9126 25.2617 24.8836 25.5684 24.845 25.8557C24.6836 27.0558 24.3384 28.0663 23.5359 28.8689C22.7333 29.6714 21.7228 30.0166 20.5227 30.178C19.3667 30.3334 17.8969 30.3334 16.0735 30.3334H15.9272C14.1037 30.3334 12.6339 30.3334 11.478 30.178C10.2778 30.0166 9.26735 29.6714 8.46479 28.8689C7.66224 28.0663 7.31704 27.0558 7.15569 25.8557C7.11706 25.5684 7.08803 25.2617 7.06622 24.935C5.43388 24.8273 4.1181 24.5222 3.13146 23.5356C2.3289 22.733 1.98371 21.7225 1.82236 20.5224C1.66694 19.3664 1.66697 17.8966 1.66699 16.0732V15.9269C1.66697 14.1034 1.66694 12.6336 1.82236 11.4777C1.98371 10.2775 2.3289 9.26704 3.13146 8.46449C3.93402 7.66193 4.94451 7.31674 6.14466 7.15539C6.43198 7.11676 6.73868 7.08773 7.06538 7.06592C7.17302 5.43358 7.47815 4.11779 8.46479 3.13116C9.26735 2.3286 10.2778 1.98341 11.478 1.82205C12.6339 1.66664 14.1037 1.66666 15.9272 1.66669ZM9.07652 7.00395C9.5524 7.00001 10.0578 7.00001 10.5938 7.00002H21.4068C21.9428 7.00001 22.4482 7.00001 22.9241 7.00395C22.8149 5.64281 22.569 4.99272 22.1216 4.54537C21.7526 4.17635 21.2345 3.93576 20.2562 3.80422C19.249 3.66881 17.9142 3.66669 16.0003 3.66669C14.0864 3.66669 12.7516 3.66881 11.7445 3.80422C10.7661 3.93576 10.248 4.17635 9.879 4.54537C9.43165 4.99272 9.18577 5.64281 9.07652 7.00395ZM7.00425 22.9238C7.00031 22.4479 7.00032 21.9425 7.00032 21.4065L7.00033 21H6.66699C6.11471 21 5.66699 20.5523 5.66699 20C5.66699 19.4477 6.11471 19 6.66699 19H25.3337C25.8859 19 26.3337 19.4477 26.3337 20C26.3337 20.5523 25.8859 21 25.3337 21H25.0003V21.4065C25.0003 21.9425 25.0003 22.4479 24.9964 22.9238C26.3575 22.8146 27.0076 22.5687 27.455 22.1213C27.824 21.7523 28.0646 21.2342 28.1961 20.2559C28.3315 19.2487 28.3337 17.9139 28.3337 16C28.3337 14.0861 28.3315 12.7513 28.1961 11.7442C28.0646 10.7658 27.824 10.2477 27.455 9.8787C27.086 9.50969 26.5679 9.26909 25.5895 9.13755C24.5824 9.00215 23.2475 9.00002 21.3337 9.00002H10.667C8.7531 9.00002 7.41829 9.00215 6.41115 9.13755C5.43279 9.26909 4.91469 9.50969 4.54567 9.8787C4.17666 10.2477 3.93606 10.7658 3.80452 11.7442C3.66912 12.7513 3.66699 14.0861 3.66699 16C3.66699 17.9139 3.66912 19.2487 3.80452 20.2559C3.93606 21.2342 4.17666 21.7523 4.54567 22.1213C4.99302 22.5687 5.64311 22.8146 7.00425 22.9238ZM23.0003 21H9.00033V21.3334C9.00033 23.2472 9.00245 24.5821 9.13785 25.5892C9.26939 26.5676 9.50999 27.0857 9.879 27.4547C10.248 27.8237 10.7661 28.0643 11.7445 28.1958C12.7516 28.3312 14.0864 28.3334 16.0003 28.3334C17.9142 28.3334 19.249 28.3312 20.2562 28.1958C21.2345 28.0643 21.7526 27.8237 22.1216 27.4547C22.4907 27.0857 22.7313 26.5676 22.8628 25.5892C22.9982 24.5821 23.0003 23.2472 23.0003 21.3334V21ZM7.00033 13.3334C7.00033 12.7811 7.44804 12.3334 8.00033 12.3334H12.0003C12.5526 12.3334 13.0003 12.7811 13.0003 13.3334C13.0003 13.8856 12.5526 14.3334 12.0003 14.3334H8.00033C7.44804 14.3334 7.00033 13.8856 7.00033 13.3334Z" fill="#004662"/>
<path d="M24.0003 13.3334C24.0003 14.0697 23.4034 14.6667 22.667 14.6667C21.9306 14.6667 21.3337 14.0697 21.3337 13.3334C21.3337 12.597 21.9306 12 22.667 12C23.4034 12 24.0003 12.597 24.0003 13.3334Z" fill="#004662"/>
</svg>
