<svg width="24" height="24" viewBox="0 0 24 24" fill="none" xmlns="http://www.w3.org/2000/svg">
<path fill-rule="evenodd" clip-rule="evenodd" d="M14 2.25C15.1565 2.25 16.1561 2.25017 17.0127 2.28515L17.7002 2.32324C19.2534 2.43641 20.4554 2.73864 21.3584 3.6416L21.543 3.83886C22.4181 4.84917 22.6416 6.20508 22.7148 7.96875L22.7354 8.6416C22.7504 9.34223 22.75 10.1264 22.75 11L22.75 13C22.75 14.8644 22.7514 16.3384 22.5967 17.4893C22.439 18.6616 22.1067 19.6101 21.3584 20.3584C20.4554 21.2614 19.2534 21.5636 17.7002 21.6768L17.0127 21.7148C16.1561 21.7498 15.1565 21.75 14 21.75L10 21.75C9.13241 21.75 8.3531 21.7501 7.65625 21.7354L6.98731 21.7148C5.09658 21.6376 3.67352 21.3903 2.64161 20.3584C1.8933 19.6101 1.56097 18.6616 1.40332 17.4893C1.2486 16.3384 1.25 14.8644 1.25 13L1.25 11C1.25 9.83531 1.24941 8.82953 1.28516 7.96875L1.32422 7.28516C1.43821 5.73928 1.74132 4.54188 2.6416 3.6416C3.67352 2.60968 5.09658 2.36241 6.98731 2.28516L7.65625 2.26465C8.3531 2.24991 9.13241 2.25 10 2.25L14 2.25ZM7.76758 20.2363C8.42079 20.2489 9.15807 20.25 10 20.25L14 20.25C14.8419 20.25 15.5792 20.2489 16.2324 20.2363L16.2324 8.75L7.76758 8.75L7.76758 20.2363ZM2.76367 8.75C2.75071 9.40749 2.75 10.1505 2.75 11L2.75 13C2.75 14.9068 2.7515 16.2614 2.88965 17.2891C3.02492 18.2952 3.27894 18.8746 3.70215 19.2979C4.20295 19.7987 4.9151 20.0529 6.26758 20.166L6.26758 8.75L2.76367 8.75ZM17.7324 20.166C19.0849 20.0529 19.7971 19.7987 20.2979 19.2978C20.7211 18.8746 20.9751 18.2951 21.1104 17.2891C21.2485 16.2614 21.25 14.9068 21.25 13L21.25 11C21.25 10.1505 21.2493 9.40749 21.2363 8.75L17.7324 8.75L17.7324 20.166ZM6.26758 3.83301C4.91504 3.94607 4.20296 4.20134 3.70215 4.70215C3.20365 5.20065 2.9488 5.9087 2.83496 7.25L6.26758 7.25L6.26758 3.83301ZM10 3.75C9.15808 3.75 8.42079 3.75007 7.76758 3.76269L7.76758 7.25L16.2324 7.25L16.2324 3.76269C15.5792 3.75007 14.8419 3.75 14 3.75L10 3.75ZM17.7324 7.25L21.165 7.25C21.0596 6.00737 20.8338 5.30794 20.4043 4.81543L20.2979 4.70215C19.797 4.20133 19.085 3.94607 17.7324 3.833L17.7324 7.25Z" fill="#004662"/>
</svg>
