<svg width="30" height="30" viewBox="0 0 30 30" fill="currentColor" xmlns="http://www.w3.org/2000/svg">
<path d="M15.0001 0.666672H14.9236C11.8457 0.666655 9.43367 0.666641 7.55169 0.919667C5.62537 1.17865 4.10534 1.71911 2.91226 2.91219C1.71918 4.10527 1.17873 5.6253 0.919744 7.55161C0.666718 9.4336 0.666731 11.8456 0.666748 14.9235V15.0765C0.666731 18.1544 0.666718 20.5664 0.919744 22.4484C1.17873 24.3747 1.71918 25.8947 2.91226 27.0878C4.10534 28.2809 5.62537 28.8214 7.55169 29.0803C9.43367 29.3334 11.8457 29.3334 14.9236 29.3333H15.0766C18.1544 29.3334 20.5665 29.3334 22.4485 29.0803C24.3748 28.8214 25.8948 28.2809 27.0879 27.0878C28.281 25.8947 28.8214 24.3747 29.0804 22.4484C29.3334 20.5664 29.3334 18.1544 29.3334 15.0765V15C29.3334 14.4477 28.8857 14 28.3334 14C27.7811 14 27.3334 14.4477 27.3334 15C27.3334 18.171 27.3313 20.4486 27.0983 22.1819C26.8691 23.8864 26.4332 24.9141 25.6737 25.6736C24.9141 26.4332 23.8865 26.869 22.182 27.0982C20.4487 27.3312 18.171 27.3333 15.0001 27.3333C11.8291 27.3333 9.55149 27.3312 7.81818 27.0982C6.11365 26.869 5.08602 26.4332 4.32648 25.6736C3.56694 24.9141 3.13108 23.8864 2.90191 22.1819C2.66887 20.4486 2.66675 18.171 2.66675 15C2.66675 11.829 2.66887 9.55141 2.90191 7.81811C3.13108 6.11357 3.56694 5.08594 4.32648 4.3264C5.08602 3.56686 6.11365 3.131 7.81818 2.90183C9.55149 2.6688 11.8291 2.66667 15.0001 2.66667C15.5524 2.66667 16.0001 2.21896 16.0001 1.66667C16.0001 1.11439 15.5524 0.666672 15.0001 0.666672Z" fill="white"/>
<path d="M15.6263 12.9596C15.2358 13.3501 15.2358 13.9833 15.6263 14.3738C16.0168 14.7643 16.65 14.7643 17.0405 14.3738L27.3334 4.08089V8.79167C27.3334 9.34396 27.7811 9.79167 28.3334 9.79167C28.8857 9.79167 29.3334 9.34396 29.3334 8.79167V1.66667C29.3334 1.11439 28.8857 0.666672 28.3334 0.666672H21.2084C20.6561 0.666672 20.2084 1.11439 20.2084 1.66667C20.2084 2.21896 20.6561 2.66667 21.2084 2.66667H25.9192L15.6263 12.9596Z" fill="white"/>
</svg>
